<svg height="200px" width="200px" version="1.1" id="Layer_1" xmlns="http://www.w3.org/2000/svg" xmlns:xlink="http://www.w3.org/1999/xlink" viewBox="0 0 512 512" xml:space="preserve" fill="#000000"><g id="SVGRepo_bgCarrier" stroke-width="0"></g><g id="SVGRepo_tracerCarrier" stroke-linecap="round" stroke-linejoin="round"></g><g id="SVGRepo_iconCarrier"> <g> <path style="fill:#d2d1f0;" d="M361.931,494.345H150.069c0-19.5,15.81-35.31,35.31-35.31h141.241 C346.121,459.034,361.931,474.845,361.931,494.345"></path> <polygon style="fill:#8c82d3;" points="317.793,459.034 194.207,459.034 211.862,388.414 300.138,388.414 "></polygon> <path style="fill:#7d79be;" d="M512,317.793H0V48.552c0-17.064,13.833-30.897,30.897-30.897h450.207 c17.064,0,30.897,13.833,30.897,30.897V317.793z"></path> <path style="fill:#d2d1f0;" d="M481.103,388.414H30.897C13.833,388.414,0,374.581,0,357.517v-39.724h512v39.724 C512,374.581,498.167,388.414,481.103,388.414"></path> <g> <polygon style="fill:#3d25b6;" points="70.621,282.483 123.586,282.483 123.586,238.345 70.621,238.345 "></polygon> <polygon style="fill:#3d25b6;" points="150.069,282.483 203.034,282.483 203.034,238.345 150.069,238.345 "></polygon> <polygon style="fill:#3d25b6;" points="229.517,282.483 282.483,282.483 282.483,238.345 229.517,238.345 "></polygon> <polygon style="fill:#3d25b6;" points="308.966,282.483 361.931,282.483 361.931,238.345 308.966,238.345 "></polygon> <polygon style="fill:#3d25b6;" points="388.414,282.483 441.379,282.483 441.379,238.345 388.414,238.345 "></polygon> </g> <g> <polygon style="fill:#c2bfe8;" points="70.621,238.345 123.586,238.345 123.586,194.207 70.621,194.207 "></polygon> <polygon style="fill:#c2bfe8;" points="150.069,238.345 203.034,238.345 203.034,158.897 150.069,158.897 "></polygon> <polygon style="fill:#c2bfe8;" points="229.517,238.345 282.483,238.345 282.483,105.931 229.517,105.931 "></polygon> <polygon style="fill:#c2bfe8;" points="308.966,238.345 361.931,238.345 361.931,167.724 308.966,167.724 "></polygon> <polygon style="fill:#c2bfe8;" points="388.414,238.345 441.379,238.345 441.379,52.966 388.414,52.966 "></polygon> </g> <g> <path style="fill:#3810a8;" d="M61.793,132.414c-2.26,0-4.52-0.865-6.241-2.586c-3.452-3.452-3.452-9.031,0-12.482l61.793-61.793 c3.452-3.452,9.031-3.452,12.482,0c3.452,3.452,3.452,9.031,0,12.482l-61.793,61.793 C66.313,131.549,64.053,132.414,61.793,132.414"></path> <path style="fill:#3810a8;" d="M123.586,114.759c-4.882,0-8.828-3.955-8.828-8.828V61.793c0-4.873,3.946-8.828,8.828-8.828 s8.828,3.955,8.828,8.828v44.138C132.414,110.804,128.468,114.759,123.586,114.759"></path> <path style="fill:#3810a8;" d="M123.586,70.621H79.448c-4.882,0-8.828-3.955-8.828-8.828s3.946-8.828,8.828-8.828h44.138 c4.882,0,8.828,3.955,8.828,8.828S128.468,70.621,123.586,70.621"></path> </g> </g> </g></svg>