<?xml version="1.0" standalone="no"?>
<!DOCTYPE svg PUBLIC "-//W3C//DTD SVG 20010904//EN"
 "http://www.w3.org/TR/2001/REC-SVG-20010904/DTD/svg10.dtd">
<svg version="1.0" xmlns="http://www.w3.org/2000/svg"
 width="300.000000pt" height="85.000000pt" viewBox="0 0 300.000000 85.000000"
 preserveAspectRatio="xMidYMid meet">
<metadata>
Created by potrace 1.10, written by Peter Selinger 2001-2011
</metadata>
<g transform="translate(0.000000,85.000000) scale(0.100000,-0.100000)"
fill="#000000" stroke="none">
<path d="M1008 453 c3 -273 5 -284 53 -296 18 -5 19 3 19 243 0 137 -3 256 -6
265 -5 12 -52 45 -66 45 -2 0 -2 -116 0 -257z m52 -30 c0 -175 -3 -224 -12
-221 -20 7 -23 47 -20 259 2 169 5 197 17 192 13 -4 15 -42 15 -230z"/>
<path d="M25 425 c0 -151 1 -275 3 -275 14 0 61 33 66 45 3 9 6 53 6 98 0 64
4 89 20 114 47 77 151 84 215 13 16 -18 21 -41 25 -120 6 -103 18 -132 61
-143 18 -5 19 1 19 109 0 81 -5 126 -16 152 -46 112 -180 161 -288 105 -42
-22 -18 -28 37 -9 97 33 191 -12 233 -113 16 -39 20 -201 4 -201 -18 0 -30 48
-30 118 0 49 -5 76 -20 100 -43 70 -128 91 -201 50 -54 -30 -79 -85 -79 -174
0 -68 -11 -106 -27 -91 -10 11 -11 424 -1 440 14 21 28 -14 28 -70 0 -28 5
-55 10 -58 11 -7 14 112 4 140 -5 12 -52 45 -66 45 -2 0 -3 -124 -3 -275z"/>
<path d="M623 526 c-146 -70 -152 -282 -9 -347 45 -20 145 -25 176 -9 22 12
40 61 33 89 -5 20 -5 20 -35 -2 -40 -30 -115 -30 -155 -1 -39 29 -56 83 -40
131 33 100 181 112 237 20 16 -25 20 -50 20 -114 0 -45 3 -89 6 -98 7 -18 61
-49 66 -37 2 4 1 66 -2 138 -5 123 -7 133 -32 166 -64 84 -170 109 -265 64z
m187 -23 c17 -8 42 -31 58 -50 25 -34 27 -45 30 -145 3 -72 0 -108 -7 -108
-14 0 -19 27 -24 123 -5 89 -21 121 -78 149 -42 22 -110 23 -149 3 -59 -31
-88 -124 -58 -190 23 -52 112 -85 174 -65 43 14 54 7 29 -20 -25 -28 -114 -28
-164 1 -95 53 -120 192 -47 264 61 61 159 77 236 38z"/>
<path d="M1140 545 c0 -3 42 -88 92 -190 76 -152 97 -186 121 -196 54 -22 69
-5 167 191 49 99 90 184 90 190 0 5 -9 10 -20 10 -45 0 -67 -22 -115 -118 -71
-144 -96 -202 -85 -202 5 0 41 62 79 139 39 76 77 141 85 144 9 4 16 3 16 -2
0 -12 -138 -293 -153 -313 -22 -27 -62 -23 -85 10 -25 35 -142 284 -142 301 0
32 35 -19 96 -140 55 -112 84 -157 84 -133 0 23 -141 294 -158 303 -21 11 -72
15 -72 6z"/>
<path d="M1756 535 c-80 -28 -126 -96 -126 -185 0 -94 59 -169 150 -189 74
-17 160 13 200 69 l21 30 -25 11 c-21 10 -31 8 -70 -15 -50 -29 -102 -34 -146
-11 -27 14 -60 51 -60 67 0 5 63 8 140 8 127 0 142 2 160 20 25 25 25 43 1 95
-42 94 -145 136 -245 100z m159 -34 c64 -37 98 -128 56 -151 -11 -5 -71 -10
-133 -10 -134 0 -159 -10 -143 -56 24 -68 131 -95 208 -54 44 24 47 24 47 7 0
-23 -74 -57 -124 -57 -128 0 -211 124 -162 241 39 93 162 132 251 80z"/>
<path d="M1777 486 c-52 -19 -87 -54 -86 -85 0 -24 1 -24 9 -5 12 30 64 71
100 79 43 9 94 -11 130 -51 31 -36 42 -26 14 14 -32 47 -109 69 -167 48z"/>
<path d="M1715 381 c-3 -6 5 -13 18 -16 37 -10 197 -1 200 10 3 14 -209 19
-218 6z"/>
<path d="M2260 481 c0 -63 2 -71 26 -90 53 -41 64 -21 45 79 -8 41 -39 80 -62
80 -5 0 -9 -31 -9 -69z"/>
<path d="M2328 527 c12 -13 22 -33 22 -45 0 -11 8 -27 18 -34 10 -7 26 -24 35
-38 63 -91 -49 -211 -156 -166 -80 33 -99 127 -38 190 23 24 31 41 31 69 0 20
-4 37 -8 37 -26 0 -96 -66 -114 -107 -66 -150 62 -308 222 -272 185 42 204
300 28 374 -52 21 -65 19 -40 -8z"/>
<path d="M2709 536 c-57 -20 -96 -53 -118 -99 -18 -37 -21 -62 -21 -165 0 -70
4 -122 9 -122 6 0 22 11 38 24 26 22 28 30 33 125 5 96 6 102 36 132 61 61
168 44 206 -32 13 -24 18 -58 18 -115 0 -87 13 -116 55 -128 19 -6 20 -2 16
122 -4 169 -23 207 -121 251 -52 24 -99 26 -151 7z"/>
</g>
</svg>
